<?xml version="1.0" encoding="UTF-8"?>
<svg id="katman_1" xmlns="http://www.w3.org/2000/svg" version="1.1" viewBox="0 0 215.57 236.32">
  <!-- Generator: Adobe Illustrator 30.0.0, SVG Export Plug-In . SVG Version: 2.1.1 Build 123)  -->
  <defs>
    <style>
      .st0 {
        fill: #eec745ff;
      }
    </style>
  </defs>
  <path class="st0" d="M107.78,45.93c-1.3,10.41-7.08,21.22-18.98,29.85-12.41,9.05-14.74,6.02-4.43,6.48,13.3.55,21.06,7.76,23.4,15.94,2.34-8.18,10.1-15.39,23.4-15.94,10.32-.46,7.98,2.57-4.43-6.48-11.89-8.63-17.68-19.44-18.98-29.85Z"/>
  <path class="st0" d="M107.78,108.97c-.66,2.26-1.75,4.39-3.27,6.28-1.89,1.52-4.03,2.61-6.28,3.27,2.26.66,4.39,1.75,6.28,3.27,1.52,1.89,2.61,4.03,3.27,6.28.66-2.26,1.75-4.39,3.27-6.28,1.89-1.52,4.03-2.61,6.28-3.27-2.26-.66-4.39-1.75-6.28-3.27-1.52-1.89-2.61-4.03-3.27-6.28Z"/>
  <path class="st0" d="M100.61,114.64c.75-.38,1.44-.79,2.08-1.22.43-.64.84-1.33,1.22-2.08,5.78-10.59-1.29-29.05-28.61-25.31-3.74,27.32,14.73,34.39,25.31,28.61ZM78.56,89.3c2.06-2.53,7.18-1.67,7.18,2.57,0,1.28-.59,2.39-1.49,3.12-.73.9-1.85,1.49-3.12,1.49-4.23,0-5.09-5.11-2.57-7.18Z"/>
  <path class="st0" d="M103.91,125.69c-.38-.75-.79-1.44-1.22-2.08-.64-.43-1.33-.84-2.08-1.22-10.59-5.78-29.05,1.29-25.31,28.61,27.32,3.74,34.39-14.72,28.61-25.31ZM81.13,140.56c1.28,0,2.39.59,3.12,1.49.9.73,1.49,1.85,1.49,3.12,0,4.23-5.11,5.09-7.18,2.57-2.53-2.06-1.67-7.18,2.57-7.18Z"/>
  <path class="st0" d="M107.78,191.1c1.3-10.41,7.08-21.22,18.98-29.85,12.41-9.05,14.74-6.02,4.43-6.48-13.3-.55-21.06-7.76-23.4-15.94-2.34,8.18-10.1,15.39-23.4,15.94-10.32.46-7.98-2.57,4.43,6.48,11.89,8.63,17.68,19.44,18.98,29.85Z"/>
  <path class="st0" d="M150.52,137.49c8.63-11.89,19.44-17.68,29.85-18.98-10.41-1.3-21.22-7.08-29.85-18.98-9.05-12.41-6.02-14.74-6.48-4.43-.55,13.3-7.76,21.06-15.94,23.4,8.18,2.34,15.39,10.1,15.94,23.4.46,10.32-2.57,7.98,6.48-4.43Z"/>
  <path class="st0" d="M189.58,118.52c11.72,1.47,21.78,8.51,25.98,18.43v-29.16c0-2.39-.09-4.77-.24-7.12-4.34,9.61-14.25,16.41-25.74,17.86Z"/>
  <path class="st0" d="M26.91,37.64c-.41.12-.82.22-1.23.32-1.28,1.51-2.53,3.05-3.73,4.63,2.47-.52,5.4.89,5.4,4.24,0,5.67-8.33,5.78-8.74.4-3.41,5.01-6.4,10.32-8.94,15.88,20.11-19.44,53.63,5.82,35.86,22.96,1.17-24.46-32.18-26.6-41.5-7.56-.64,2.27-1.2,4.57-1.69,6.9,7.84-16.04,26.9-12.28,31.87-4.98-31.38-4.5-28.31,26.7-16.99,31.62-7.97-21.23,20.4-30.46,21.84-15.49-14.86-12.37-24.85,28.88,6.89,14.7-11.25-9.38-1.27-24.62,8.36-15.66-7.4.39-7.39,9.34-2.46,12.36,2.97-2.04,5.9-4.51,9.98-9.65-6.87-1.87-7.9-12.48-2.51-17.63.31,11.24,7.82,13.73,12.56,1.94,11.79-4.74,9.31-12.25-1.93-12.56,5.15-5.39,15.76-4.36,17.63,2.51,5.14-4.08,7.61-7.01,9.65-9.98-3.03-4.93-11.97-4.94-12.36,2.46-8.95-9.64,6.29-19.62,15.66-8.37,14.17-31.74-27.07-21.74-14.7-6.89-14.97-1.44-5.74-29.8,15.49-21.84-4.92-11.32-36.12-14.39-31.62,16.99-7.47-5.09-11.25-24.98,6.18-32.43-27.33,2.72-28.05,45.08-.54,43.75-19.64,20.37-49.97-26.65-11.4-43.62,22.03-11.63,41.29,3.76,43.85,24.08,2.56-20.32,21.82-35.71,43.85-24.08,38.57,16.97,8.24,63.99-11.4,43.62,27.51,1.32,26.78-41.03-.54-43.75,17.44,7.45,13.66,27.34,6.18,32.43,4.5-31.38-26.7-28.31-31.62-16.99,21.23-7.97,30.46,20.4,15.49,21.84,12.37-14.86-28.88-24.85-14.7,6.89,9.38-11.25,24.62-1.27,15.66,8.37-.39-7.4-9.33-7.39-12.36-2.46,2.04,2.97,4.51,5.9,9.65,9.98,1.87-6.87,12.48-7.9,17.63-2.51-11.24.31-13.73,7.82-1.94,12.56,4.74,11.79,12.25,9.31,12.56-1.94,5.39,5.15,4.36,15.76-2.51,17.63,4.08,5.14,7.02,7.61,9.98,9.65,4.93-3.03,4.94-11.97-2.46-12.36,9.64-8.95,19.62,6.29,8.36,15.66,31.74,14.17,21.75-27.07,6.89-14.7,1.44-14.97,29.8-5.74,21.84,15.49,11.32-4.92,14.39-36.12-16.99-31.62,4.97-7.29,24.03-11.06,31.87,4.98-.49-2.33-1.06-4.63-1.69-6.9-9.32-19.04-42.67-16.9-41.5,7.56-17.77-17.14,15.75-42.4,35.86-22.96-2.54-5.56-5.53-10.87-8.94-15.88-.41,5.39-8.74,5.27-8.74-.4,0-3.35,2.92-4.76,5.4-4.24-1.2-1.58-2.45-3.12-3.73-4.63-.41-.1-.81-.2-1.23-.32-.15-.52-.28-1.04-.4-1.55-3.07-3.44-6.34-6.68-9.82-9.7-.23.02-.47.04-.72.04-3.5,0-5.35-2.48-5.58-5.11C154.18,7.93,131.91,0,107.78,0h0c-24.12,0-46.4,7.93-64.36,21.32-.22,2.63-2.08,5.11-5.58,5.11-.25,0-.49-.01-.72-.04-3.48,3.02-6.76,6.27-9.82,9.7-.13.51-.26,1.03-.4,1.55ZM164.82,62.13c-.28.07-.56.13-.83.19.06-.27.12-.55.19-.83,1.82-7.6,8.11-14,15.26-14.62-.62,7.15-7.02,13.44-14.62,15.26ZM187.13,51.34c0,4.81-7.27,4.81-7.27,0s7.27-4.81,7.27,0ZM179.47,29.31c5.81,0,5.8,8.78,0,8.78s-5.8-8.78,0-8.78ZM174.96,39.17c4.81,0,4.81,7.27,0,7.27s-4.81-7.27,0-7.27ZM51.39,61.48c.07.28.13.56.19.83-.27-.06-.55-.12-.83-.19-7.6-1.82-14-8.11-14.62-15.26,7.15.62,13.44,7.02,15.26,14.62ZM40.61,46.44c-4.81,0-4.81-7.27,0-7.27s4.81,7.27,0,7.27ZM36.1,29.31c5.8,0,5.81,8.78,0,8.78s-5.81-8.78,0-8.78ZM35.71,51.34c0,4.81-7.27,4.81-7.27,0s7.27-4.81,7.27,0Z"/>
  <path class="st0" d="M140.27,86.03c-27.32-3.74-34.39,14.72-28.61,25.31.38.75.79,1.44,1.22,2.08.64.43,1.33.84,2.08,1.22,10.59,5.78,29.05-1.29,25.31-28.61ZM137,89.3c2.53,2.06,1.67,7.18-2.57,7.18-1.28,0-2.39-.59-3.12-1.49-.9-.73-1.49-1.85-1.49-3.12,0-4.23,5.11-5.09,7.18-2.57Z"/>
  <path class="st0" d="M87.47,118.52c-8.18-2.35-15.39-10.1-15.94-23.4-.46-10.32,2.57-7.98-6.48,4.43-8.63,11.89-19.44,17.68-29.85,18.98,10.41,1.3,21.22,7.08,29.85,18.98,9.05,12.41,6.02,14.74,6.48,4.43.55-13.3,7.76-21.06,15.94-23.4Z"/>
  <path class="st0" d="M25.98,118.52c-11.49-1.45-21.4-8.24-25.74-17.86-.15,2.35-.24,4.73-.24,7.12v29.16c4.2-9.91,14.27-16.95,25.98-18.43Z"/>
  <path class="st0" d="M114.96,122.39c-.75.38-1.44.79-2.08,1.22-.43.64-.84,1.33-1.22,2.08-5.78,10.59,1.29,29.05,28.61,25.31,3.74-27.32-14.73-34.39-25.31-28.61ZM137,147.74c-2.06,2.53-7.18,1.67-7.18-2.57,0-1.28.59-2.39,1.49-3.12.73-.9,1.85-1.49,3.12-1.49,4.23,0,5.09,5.11,2.57,7.18Z"/>
  <path class="st0" d="M214.44,225.17c-4.28,6.82-13.94,5.03-16.11-16.11,8.94.92,14.41,3.18,17.24,5.8v-31.19c-2.59-.64-4.78-2.72-4.78-6.26s2.19-5.62,4.78-6.26v-13c-.53,1.39-1.16,2.79-1.91,4.2-16.97,38.57-63.99,8.24-43.62-11.4-1.32,27.51,41.03,26.78,43.75-.54-7.45,17.44-27.34,13.66-32.43,6.18,31.38,4.5,28.31-26.7,16.99-31.62,7.97,21.23-20.4,30.46-21.84,15.49,14.86,12.37,24.85-28.88-6.89-14.7,11.25,9.38,1.27,24.62-8.36,15.66,7.4-.39,7.39-9.34,2.46-12.36-2.97,2.04-5.9,4.51-9.98,9.65,6.87,1.87,7.9,12.48,2.51,17.63-.31-11.24-7.82-13.73-12.56-1.94-11.79,4.74-9.31,12.25,1.94,12.56-5.15,5.39-15.76,4.36-17.63-2.51-5.14,4.08-7.61,7.01-9.65,9.98,3.03,4.93,11.97,4.94,12.36-2.46,8.95,9.64-6.29,19.62-15.66,8.36-14.17,31.74,27.07,21.74,14.7,6.89,14.97,1.44,5.74,29.8-15.49,21.84,4.92,11.32,36.12,14.39,31.62-16.99,7.47,5.09,11.25,24.98-6.18,32.43,27.33-2.72,28.05-45.08.54-43.75,19.64-20.37,49.97,26.65,11.4,43.62-22.03,11.63-41.29-3.76-43.85-24.08-2.56,20.32-21.82,35.71-43.85,24.08-38.57-16.97-8.24-63.99,11.4-43.62-27.51-1.32-26.78,41.03.54,43.75-17.44-7.45-13.66-27.34-6.18-32.43-4.5,31.38,26.7,28.31,31.62,16.99-21.23,7.97-30.46-20.4-15.49-21.84-12.37,14.86,28.88,24.85,14.7-6.89-9.38,11.25-24.62,1.27-15.66-8.36.39,7.4,9.33,7.39,12.36,2.46-2.04-2.97-4.51-5.9-9.65-9.98-1.87,6.87-12.48,7.9-17.63,2.51,11.24-.31,13.73-7.82,1.93-12.56-4.74-11.79-12.25-9.31-12.56,1.94-5.39-5.15-4.36-15.76,2.51-17.63-4.08-5.14-7.01-7.61-9.98-9.65-4.93,3.03-4.94,11.97,2.46,12.36-9.64,8.95-19.62-6.29-8.36-15.66-31.74-14.17-21.75,27.07-6.89,14.7-1.44,14.97-29.8,5.74-21.84-15.49-11.32,4.92-14.39,36.12,16.99,31.62-5.09,7.47-24.98,11.25-32.43-6.18,2.72,27.33,45.07,28.05,43.75.54,20.37,19.64-26.65,49.97-43.62,11.4-.75-1.41-1.38-2.82-1.91-4.2v13c2.59.64,4.78,2.72,4.78,6.26s-2.19,5.62-4.78,6.26v31.19c2.83-2.62,8.3-4.88,17.24-5.8-2.17,21.14-11.83,22.93-16.11,16.11-.41-.26-.79-.53-1.13-.83v11.98h215.57v-11.98c-.35.29-.72.57-1.13.83ZM50.75,174.91c.28-.07.56-.13.83-.19-.06.27-.12.55-.19.83-1.82,7.6-8.11,14-15.26,14.62.62-7.15,7.02-13.44,14.62-15.26ZM40.61,197.86c-4.81,0-4.81-7.27,0-7.27s4.81,7.27,0,7.27ZM27.35,190.2c0,5.8-8.78,5.81-8.78,0s8.78-5.81,8.78,0ZM15.69,188.45c0,7.47-11.28,7.46-11.28,0s11.28-7.46,11.28,0ZM28.33,213.49c-1.2,8.04-1.34,10.7-1.34,10.7-8.18-.51-9.42-10.61-9.55-15.33-4.72-.13-14.81-1.37-15.33-9.55,0,0,2.65-.14,10.7-1.34,3.81-.57,8.74-.09,14.1,1.42,1.51,5.36,1.99,10.29,1.42,14.1ZM28.43,185.69c0-4.81,7.27-4.81,7.27,0s-7.27,4.81-7.27,0ZM36.1,198.95c5.81,0,5.8,8.78,0,8.78s-5.8-8.78,0-8.78ZM37.85,221.89c-7.46,0-7.47-11.28,0-11.28s7.47,11.28,0,11.28ZM48.88,234.55c-8.63,0-8.63-13.04,0-13.04s8.63,13.04,0,13.04ZM211.16,188.45c0,7.46-11.28,7.47-11.28,0s11.28-7.47,11.28,0ZM196.99,190.2c0,5.81-8.78,5.8-8.78,0s8.78-5.8,8.78,0ZM164.17,175.55c-.07-.28-.13-.56-.19-.83.27.06.55.12.83.19,7.6,1.82,14,8.11,14.62,15.26-7.15-.62-13.44-7.02-15.26-14.62ZM174.96,197.86c-4.81,0-4.81-7.27,0-7.27s4.81,7.27,0,7.27ZM166.68,234.55c-8.63,0-8.62-13.04,0-13.04s8.63,13.04,0,13.04ZM177.71,221.89c-7.47,0-7.46-11.28,0-11.28s7.46,11.28,0,11.28ZM179.47,207.73c-5.8,0-5.81-8.78,0-8.78s5.81,8.78,0,8.78ZM179.86,185.69c0-4.81,7.27-4.81,7.27,0s-7.27,4.81-7.27,0ZM188.58,224.19s-.14-2.65-1.34-10.7c-.57-3.81-.09-8.74,1.42-14.1,5.36-1.51,10.29-1.99,14.1-1.42,8.04,1.2,10.7,1.34,10.7,1.34-.51,8.18-10.61,9.42-15.33,9.55-.13,4.72-1.37,14.81-9.55,15.33Z"/>
</svg>